HIERARCHY
ROOT hip
{
  OFFSET 0 0 0
  CHANNELS 6 Xposition Yposition Zposition Zrotation Yrotation Xrotation
  JOINT abdomen
  {
    OFFSET 0 20.6881 -0.73152
    CHANNELS 3 Zrotation Xrotation Yrotation
    JOINT chest
    {
      OFFSET 0 11.7043 -0.48768
      CHANNELS 3 Zrotation Xrotation Yrotation
      JOINT neck
      {
        OFFSET 0 22.1894 -2.19456
        CHANNELS 3 Zrotation Xrotation Yrotation
        JOINT head
        {
          OFFSET -0.24384 7.07133 1.2192
          CHANNELS 3 Zrotation Xrotation Yrotation
          JOINT leftEye
          {
            OFFSET 4.14528 8.04674 8.04672
            CHANNELS 3 Zrotation Xrotation Yrotation
            End Site
            {
              OFFSET 1 0 0
            }
          }
          JOINT rightEye
          {
            OFFSET -3.6576 8.04674 8.04672
            CHANNELS 3 Zrotation Xrotation Yrotation
            End Site
            {
              OFFSET 1 0 0
            }
          }
        }
      }
      JOINT rCollar
      {
        OFFSET -2.68224 19.2634 -4.8768
        CHANNELS 3 Zrotation Xrotation Yrotation
        JOINT rShldr
        {
          OFFSET -8.77824 -1.95073 1.46304
          CHANNELS 3 Zrotation Xrotation Yrotation
          JOINT rForeArm
          {
            OFFSET -28.1742 -1.7115 0.48768
            CHANNELS 3 Zrotation Xrotation Yrotation
            JOINT rHand
            {
              OFFSET -22.5879 0.773209 7.07136
              CHANNELS 3 Zrotation Xrotation Yrotation
              JOINT rThumb1
              {
                OFFSET -1.2192 -0.487915 3.41376
                CHANNELS 3 Zrotation Xrotation Yrotation
                JOINT rThumb2
                {
                  OFFSET -3.37035 -0.52449 3.41376
                  CHANNELS 3 Zrotation Xrotation Yrotation
                  End Site
                  {
                    OFFSET -1.78271 -1.18214 1.43049
                  }
                }
              }
              JOINT rIndex1
              {
                OFFSET -7.75947 0.938293 5.60832
                CHANNELS 3 Zrotation Xrotation Yrotation
                JOINT rIndex2
                {
                  OFFSET -2.54057 -0.884171 1.56538
                  CHANNELS 3 Zrotation Xrotation Yrotation
                  End Site
                  {
                    OFFSET -1.62519 -0.234802 1.16502
                  }
                }
              }
              JOINT rMid1
              {
                OFFSET -8.24714 1.18213 3.41376
                CHANNELS 3 Zrotation Xrotation Yrotation
                JOINT rMid2
                {
                  OFFSET -3.10165 -0.590103 1.0647
                  CHANNELS 3 Zrotation Xrotation Yrotation
                  End Site
                  {
                    OFFSET -2.48547 -0.328903 0.83742
                  }
                }
              }
              JOINT rRing1
              {
                OFFSET -8.82822 0.546677 1.51678
                CHANNELS 3 Zrotation Xrotation Yrotation
                JOINT rRing2
                {
                  OFFSET -2.60934 -0.819778 -0.0198488
                  CHANNELS 3 Zrotation Xrotation Yrotation
                  End Site
                  {
                    OFFSET -2.33842 -0.294052 0.168128
                  }
                }
              }
              JOINT rPinky1
              {
                OFFSET -8.27202 -0.0477905 -0.4584
                CHANNELS 3 Zrotation Xrotation Yrotation
                JOINT rPinky2
                {
                  OFFSET -1.82734 -0.647385 -0.700984
                  CHANNELS 3 Zrotation Xrotation Yrotation
                  End Site
                  {
                    OFFSET -1.69225 -0.51767 -0.607171
                  }
                }
              }
            }
          }
        }
      }
      JOINT lCollar
      {
        OFFSET 2.68224 19.2634 -4.8768
        CHANNELS 3 Zrotation Xrotation Yrotation
        JOINT lShldr
        {
          OFFSET 8.77824 -1.95073 1.46304
          CHANNELS 3 Zrotation Xrotation Yrotation
          JOINT lForeArm
          {
            OFFSET 28.1742 -1.7115 0.48768
            CHANNELS 3 Zrotation Xrotation Yrotation
            JOINT lHand
            {
              OFFSET 22.5879 0.773209 7.07136
              CHANNELS 3 Zrotation Xrotation Yrotation
              JOINT lThumb1
              {
                OFFSET 1.2192 -0.487915 3.41376
                CHANNELS 3 Zrotation Xrotation Yrotation
                JOINT lThumb2
                {
                  OFFSET 3.37035 -0.52449 3.41376
                  CHANNELS 3 Zrotation Xrotation Yrotation
                  End Site
                  {
                    OFFSET 1.78271 -1.18214 1.43049
                  }
                }
              }
              JOINT lIndex1
              {
                OFFSET 7.75947 0.938293 5.60832
                CHANNELS 3 Zrotation Xrotation Yrotation
                JOINT lIndex2
                {
                  OFFSET 2.54057 -0.884171 1.56538
                  CHANNELS 3 Zrotation Xrotation Yrotation
                  End Site
                  {
                    OFFSET 1.62519 -0.234802 1.16502
                  }
                }
              }
              JOINT lMid1
              {
                OFFSET 8.24714 1.18213 3.41376
                CHANNELS 3 Zrotation Xrotation Yrotation
                JOINT lMid2
                {
                  OFFSET 3.10165 -0.590103 1.0647
                  CHANNELS 3 Zrotation Xrotation Yrotation
                  End Site
                  {
                    OFFSET 2.48547 -0.328903 0.83742
                  }
                }
              }
              JOINT lRing1
              {
                OFFSET 8.82822 0.546677 1.51678
                CHANNELS 3 Zrotation Xrotation Yrotation
                JOINT lRing2
                {
                  OFFSET 2.60934 -0.819778 -0.0198488
                  CHANNELS 3 Zrotation Xrotation Yrotation
                  End Site
                  {
                    OFFSET 2.33842 -0.294052 0.168128
                  }
                }
              }
              JOINT lPinky1
              {
                OFFSET 8.27202 -0.0477905 -0.4584
                CHANNELS 3 Zrotation Xrotation Yrotation
                JOINT lPinky2
                {
                  OFFSET 1.82734 -0.647385 -0.700984
                  CHANNELS 3 Zrotation Xrotation Yrotation
                  End Site
                  {
                    OFFSET 1.69225 -0.51767 -0.607171
                  }
                }
              }
            }
          }
        }
      }
    }
  }
  JOINT rButtock
  {
    OFFSET -8.77824 4.35084 1.2192
    CHANNELS 3 Zrotation Xrotation Yrotation
    JOINT rThigh
    {
      OFFSET 0 -1.70687 -2.19456
      CHANNELS 3 Zrotation Xrotation Yrotation
      JOINT rShin
      {
        OFFSET 0 -36.8199 0.73152
        CHANNELS 3 Zrotation Xrotation Yrotation
        JOINT rFoot
        {
          OFFSET 0.73152 -45.1104 -5.12064
          CHANNELS 3 Zrotation Xrotation Yrotation
          End Site
          {
            OFFSET -1.1221 -3.69964 12.103
          }
        }
      }
    }
  }
  JOINT lButtock
  {
    OFFSET 8.77824 4.35084 1.2192
    CHANNELS 3 Zrotation Xrotation Yrotation
    JOINT lThigh
    {
      OFFSET 0 -1.70687 -2.19456
      CHANNELS 3 Zrotation Xrotation Yrotation
      JOINT lShin
      {
        OFFSET 0 -36.8199 0.73152
        CHANNELS 3 Zrotation Xrotation Yrotation
        JOINT lFoot
        {
          OFFSET -0.73152 -45.1104 -5.12064
          CHANNELS 3 Zrotation Xrotation Yrotation
          End Site
          {
            OFFSET 1.1221 -3.69964 12.103
          }
        }
      }
    }
  }
}
MOTION
Frames:	4
Frame Time:	0.03333
-0.923436079826317 32.63842777912111 1.2839984239709963 -19.827898025512695 -23.545801162719727 12.852601051330566 17.628297805786133 5.674139499664307 7.9385294914245605 -1.318100094795227 -7.8784708976745605 2.1707499027252197 -1.873270034790039 14.4256010055542 2.086519718170166 6.445019245147705 -21.40019989013672 5.34451961517334 -0.0 0.0 -0.0 -0.0 0.0 -0.0 -2.5444436054650188e-14 1.2722218027325094e-13 -4.07110976874403e-13 75.70589447021484 37.46360397338867 -17.671201705932617 -19.00870132446289 -11.813798904418945 36.324398040771484 -0.26780998706817627 14.574196815490723 2.0940895080566406 9.257449251620642e-10 -5.805402270020465e-10 4.956067223282901e-10 1.6058238072602649e-09 -1.0023072372078445e-09 8.428024389495192e-10 9.257449251620642e-10 -5.805402270020465e-10 4.956003385458985e-10 7.7309088706970215 5.474880218505859 0.41731396317481995 9.257449251620642e-10 -5.805402270020465e-10 4.956067223282901e-10 2.9055399894714355 0.9651829600334167 0.10290198773145676 9.257449251620642e-10 -5.805402270020465e-10 4.956067223282901e-10 10.27859878540039 0.73180091381073 0.025912299752235413 9.25719445543649e-10 -5.805402270020465e-10 4.956067223282901e-10 2.2216696739196777 -0.7334870100021362 -0.2089199721813202 -2.5444436054650188e-14 1.2722218027325094e-13 -4.07110976874403e-13 -72.00529479980469 22.482202529907227 -8.070649147033691 13.023399353027344 -6.192679405212402 -23.60890007019043 0.22581297159194946 13.410500526428223 -1.9202800989151 1.5971727274077807e-09 3.0859266253457918e-09 1.5167174183261523e-09 2.7755300280318806e-09 5.3235611474633515e-09 2.6024504773403123e-09 1.5971727274077807e-09 3.0859266253457918e-09 1.516730074868633e-09 -7.7309088706970215 5.474880218505859 -0.41731396317481995 1.5971727274077807e-09 3.0859013122608303e-09 1.5167174183261523e-09 -2.9055399894714355 0.9651829600334167 -0.10290198773145676 1.5971727274077807e-09 3.0859013122608303e-09 1.5167174183261523e-09 -10.27859878540039 0.73180091381073 -0.025912299752235413 1.5971981515150446e-09 3.0859266253457918e-09 1.5167109790326094e-09 -2.2216696739196777 -0.7334870100021362 0.2089199721813202 -0.0 0.0 -0.0 -0.68961501121521 8.124349594116211 -9.08103084564209 -0.03206378221511841 40.63459777832031 2.5789999961853027 -15.718399047851562 -24.853097915649414 -32.85759735107422 -0.0 0.0 -0.0 85.7345962524414 -57.044002532958984 75.40149688720703 6.5328803062438965 81.41488647460938 -6.39324951171875 0.48572102189064026 -4.800469875335693 -0.6366419196128845
-0.9138676843265601 32.60072513490264 1.3160840613552975 -19.73349952697754 -23.52869987487793 12.837498664855957 17.536100387573242 5.6745195388793945 7.904470920562744 -1.2732999324798584 -7.922659397125244 2.161250114440918 -1.9187999963760376 14.499601364135742 2.0540099143981934 6.505099773406982 -21.603099822998047 5.304140090942383 -0.0 0.0 -0.0 -0.0 0.0 -0.0 5.0888872109300376e-14 3.5622210476510263e-13 2.162777064645266e-13 75.64769744873047 37.453697204589844 -17.63119888305664 -18.97269630432129 -11.77199935913086 36.24049758911133 -0.26956403255462646 14.620599746704102 2.1010499000549316 -1.1096318308645436e-10 6.984243183794092e-10 1.8248749733551506e-10 -1.8823793912492448e-10 1.2067532528803326e-09 3.1418789792070356e-10 -1.1096318308645436e-10 6.984243183794092e-10 1.824747714040953e-10 7.7309088706970215 5.474880218505859 0.41731396317481995 -1.1096318308645436e-10 6.984243183794092e-10 1.8248749733551506e-10 2.9055399894714355 0.9651829600334167 0.10290198773145676 -1.1096318308645436e-10 6.984243183794092e-10 1.8248749733551506e-10 10.27859878540039 0.73180091381073 0.025912299752235413 -1.1096318308645436e-10 6.984243183794092e-10 1.8248749733551506e-10 2.2216696739196777 -0.7334870100021362 -0.2089199721813202 5.0888872109300376e-14 3.5622210476510263e-13 2.162777064645266e-13 -72.04059600830078 22.569400787353516 -8.052989959716797 12.989896774291992 -6.1674699783325195 -23.54279899597168 0.2271689623594284 13.450399398803711 -1.9262099266052246 -2.9497480014128996e-09 -1.078691469480475e-09 1.5043705170469934e-09 -5.0802615447764765e-09 -1.8014915115216468e-09 2.6351212323305617e-09 -2.9497480014128996e-09 -1.078691469480475e-09 1.5043705170469934e-09 -7.7309088706970215 5.474880218505859 -0.41731396317481995 -2.9497480014128996e-09 -1.078691469480475e-09 1.5043577494822102e-09 -2.9055399894714355 0.9651829600334167 -0.10290198773145676 -2.9497480014128996e-09 -1.078691469480475e-09 1.5043705170469934e-09 -10.27859878540039 0.73180091381073 -0.025912299752235413 -2.949722688327938e-09 -1.0786659343509086e-09 1.5043577494822102e-09 -2.2216696739196777 -0.7334870100021362 0.2089199721813202 -0.0 0.0 -0.0 -0.7476217150688171 8.051680564880371 -9.061540603637695 -0.03327910602092743 40.79059982299805 2.5905098915100098 -15.83299732208252 -24.950599670410156 -32.95659637451172 -0.0 0.0 -0.0 85.83480072021484 -57.074493408203125 75.62310028076172 6.618608474731445 81.50619506835938 -6.473479747772217 0.48706892132759094 -4.859600067138672 -0.6353609561920166
-0.909169430483487 32.569842434570425 1.3412942045379554 -19.65149688720703 -23.5403995513916 12.83699893951416 17.45560073852539 5.6679301261901855 7.873340606689453 -1.2284798622131348 -7.935100555419922 2.153280019760132 -2.0211195945739746 14.571099281311035 2.0028798580169678 6.656129837036133 -21.769197463989258 5.243869781494141 -0.0 0.0 -0.0 -0.0 0.0 -0.0 1.7811105238255132e-13 3.5622210476510263e-13 2.9261101462847716e-13 75.56749725341797 37.46800231933594 -17.552297592163086 -18.928598403930664 -11.721099853515625 36.13810348510742 -0.26941198110580444 14.61660099029541 2.100450038909912 -1.1055099058410178e-09 1.5274803644160784e-09 -5.647710632494807e-10 -1.914871816666164e-09 2.639682028515722e-09 -9.636380582378479e-10 -1.1055099058410178e-09 1.5274803644160784e-09 -5.647837753031126e-10 7.7309088706970215 5.474880218505859 0.41731396317481995 -1.1055099058410178e-09 1.5274803644160784e-09 -5.647774470318723e-10 2.9055399894714355 0.9651829600334167 0.10290198773145676 -1.1055099058410178e-09 1.5274803644160784e-09 -5.647774470318723e-10 10.27859878540039 0.73180091381073 0.025912299752235413 -1.1055099058410178e-09 1.5274803644160784e-09 -5.647774470318723e-10 2.2216696739196777 -0.7334870100021362 -0.2089199721813202 1.7811105238255132e-13 3.5622210476510263e-13 2.9261101462847716e-13 -72.06529235839844 22.645797729492188 -8.054980278015137 12.951799392700195 -6.138950347900391 -23.467897415161133 0.227463960647583 13.458898544311523 -1.927470088005066 -4.345019011253726e-09 -4.063400282916518e-09 2.987176825341997e-11 -7.507100718839865e-09 -6.951572650848448e-09 1.0430310781739394e-10 -4.345019011253726e-09 -4.063400282916518e-09 2.987176825341997e-11 -7.7309088706970215 5.474880218505859 -0.41731396317481995 -4.345019011253726e-09 -4.063400282916518e-09 2.986540528771009e-11 -2.9055399894714355 0.9651829600334167 -0.10290198773145676 -4.345019011253726e-09 -4.063400282916518e-09 2.986540528771009e-11 -10.27859878540039 0.73180091381073 -0.025912299752235413 -4.344993698168764e-09 -4.063400282916518e-09 2.985904579144716e-11 -2.2216696739196777 -0.7334870100021362 0.2089199721813202 -0.0 0.0 -0.0 -0.8147990107536316 8.011149406433105 -9.035150527954102 -0.03406640142202377 40.905601501464844 2.5997397899627686 -15.920999526977539 -25.027299880981445 -33.03269958496094 -0.0 0.0 -0.0 85.90679168701172 -57.08060073852539 75.78679656982422 6.713010311126709 81.60639190673828 -6.5637102127075195 0.48076701164245605 -4.938649654388428 -0.6650398969650269
-0.9076224444340257 32.53821524361869 1.365358431742418 -19.6227970123291 -23.545700073242188 12.81619930267334 17.386699676513672 5.654360294342041 7.845139503479004 -1.183639645576477 -7.915781497955322 2.146860122680664 -2.180189609527588 14.640198707580566 1.9331001043319702 6.898049354553223 -21.898698806762695 5.163659572601318 -0.0 0.0 -0.0 -0.0 0.0 -0.0 3.5622210476510263e-13 1.2722218027325094e-13 -1.7174994336888877e-13 75.46520233154297 37.50620651245117 -17.434499740600586 -18.87630271911621 -11.66089916229248 36.01719284057617 -0.26735803484916687 14.562298774719238 2.092299699783325 -2.0579205006754364e-09 1.906627966619112e-09 -1.7461816437247535e-09 -3.574027296338045e-09 3.296402928398834e-09 -2.9906626064502007e-09 -2.0579205006754364e-09 1.906627966619112e-09 -1.7461880830182963e-09 7.7309088706970215 5.474880218505859 0.41731396317481995 -2.057946035805003e-09 1.906627966619112e-09 -1.7461880830182963e-09 2.9055399894714355 0.9651829600334167 0.10290198773145676 -2.0579205006754364e-09 1.906627966619112e-09 -1.7461816437247535e-09 10.27859878540039 0.73180091381073 0.025912299752235413 -2.057946035805003e-09 1.906627966619112e-09 -1.7461816437247535e-09 2.2216696739196777 -0.7334870100021362 -0.2089199721813202 3.5622210476510263e-13 1.2722218027325094e-13 -1.7811105238255132e-13 -72.07929992675781 22.711599349975586 -8.07664966583252 12.909197807312012 -6.107099533081055 -23.38409996032715 0.22669492661952972 13.435898780822754 -1.9240598678588867 -2.588640635181605e-09 -5.86827564319492e-09 -2.9067788176462273e-09 -4.504937312077573e-09 -1.012670747257971e-08 -4.989997304249982e-09 -2.588640635181605e-09 -5.868250330109959e-09 -2.9067788176462273e-09 -7.7309088706970215 5.474880218505859 -0.41731396317481995 -2.588640635181605e-09 -5.868250330109959e-09 -2.906791474188708e-09 -2.9055399894714355 0.9651829600334167 -0.10290198773145676 -2.588640635181605e-09 -5.86827564319492e-09 -2.906791474188708e-09 -10.27859878540039 0.73180091381073 -0.025912299752235413 -2.588640635181605e-09 -5.868250330109959e-09 -2.906797913482251e-09 -2.2216696739196777 -0.7334870100021362 0.2089199721813202 -0.0 0.0 -0.0 -0.8911757469177246 8.002760887145996 -9.001840591430664 -0.03438162803649902 40.979496002197266 2.606649875640869 -15.982098579406738 -25.083200454711914 -33.085899353027344 -0.0 0.0 -0.0 85.9501953125 -57.06269454956055 75.89219665527344 6.816730976104736 81.7155990600586 -6.664620399475098 0.46665504574775696 -5.0376200675964355 -0.725693941116333
